<?xml version="1.0" standalone="no"?>
<!DOCTYPE svg PUBLIC "-//W3C//DTD SVG 20010904//EN"
 "http://www.w3.org/TR/2001/REC-SVG-20010904/DTD/svg10.dtd">
<svg version="1.0" xmlns="http://www.w3.org/2000/svg"
 width="300.000000pt" height="300.000000pt" viewBox="0 0 300.000000 300.000000"
 preserveAspectRatio="xMidYMid meet">
<metadata>
Created by potrace 1.10, written by Peter Selinger 2001-2011
</metadata>
<g transform="translate(0.000000,300.000000) scale(0.100000,-0.100000)"
fill="#000000" stroke="none">
<path d="M1480 2179 c-17 -30 3 -77 25 -59 19 16 19 54 1 69 -12 10 -17 8 -26
-10z"/>
<path d="M1411 2166 c-8 -10 -11 -26 -7 -42 6 -21 9 -24 21 -14 17 14 19 38 6
58 -6 10 -10 10 -20 -2z"/>
<path d="M1554 2156 c-4 -19 -2 -33 9 -43 14 -15 16 -14 23 11 4 19 2 33 -9
43 -14 15 -16 14 -23 -11z"/>
<path d="M1335 2137 c-4 -14 -2 -35 5 -47 9 -17 14 -19 26 -9 20 16 18 43 -6
64 -18 17 -19 16 -25 -8z"/>
<path d="M1625 2136 c-13 -20 -14 -29 -5 -46 9 -17 14 -19 26 -9 16 13 19 65
4 74 -5 3 -16 -5 -25 -19z"/>
<path d="M1207 2114 c-9 -10 6 -45 24 -54 23 -13 34 3 20 29 -11 19 -35 33
-44 25z"/>
<path d="M1260 2107 c0 -7 6 -22 14 -33 20 -27 43 -6 27 25 -13 23 -41 29 -41
8z"/>
<path d="M1447 2113 c-11 -10 -8 -63 3 -63 14 0 28 31 23 51 -5 20 -15 24 -26
12z"/>
<path d="M1527 2114 c-11 -11 -8 -52 4 -60 10 -6 28 11 29 27 0 13 -26 40 -33
33z"/>
<path d="M1697 2113 c-10 -9 -9 -53 1 -53 14 0 32 23 32 42 0 18 -20 25 -33
11z"/>
<path d="M1758 2107 c-18 -14 -29 -42 -21 -51 10 -10 40 13 46 34 6 25 -5 33
-25 17z"/>
<path d="M1385 2071 c-8 -25 10 -61 30 -61 22 0 19 44 -4 64 -18 17 -19 16
-26 -3z"/>
<path d="M1576 2068 c-19 -27 -21 -58 -3 -58 20 0 37 21 37 46 0 33 -16 38
-34 12z"/>
<path d="M1484 2056 c-7 -28 2 -49 17 -41 12 8 12 52 -1 60 -5 3 -12 -5 -16
-19z"/>
<path d="M1322 2039 c3 -31 30 -60 44 -47 12 12 -6 57 -27 68 -19 11 -20 9
-17 -21z"/>
<path d="M1641 2051 c-24 -24 -28 -61 -6 -61 23 0 48 46 37 66 -9 15 -11 15
-31 -5z"/>
<path d="M1190 2021 c0 -11 10 -27 23 -36 21 -15 22 -14 25 7 2 13 -4 27 -14
35 -25 18 -34 16 -34 -6z"/>
<path d="M1766 2027 c-11 -8 -17 -23 -14 -38 l3 -24 28 27 c15 15 27 32 27 38
0 14 -23 13 -44 -3z"/>
<path d="M1267 2018 c-5 -16 10 -48 24 -48 14 0 7 52 -7 57 -7 2 -14 -2 -17
-9z"/>
<path d="M1697 2023 c-4 -3 -7 -17 -7 -30 0 -33 24 -24 28 10 3 26 -7 35 -21
20z"/>
<path d="M1535 2003 c-6 -2 -9 -43 -7 -105 2 -79 -1 -112 -14 -143 l-16 -40
-19 35 c-15 28 -19 55 -18 138 1 57 -1 106 -5 109 -3 4 -6 -3 -6 -15 0 -12 -4
-22 -9 -22 -5 0 -11 -27 -13 -60 -2 -33 -7 -62 -10 -65 -6 -6 -122 77 -133 95
-3 6 -16 15 -28 22 -21 11 -21 10 -8 -8 8 -10 26 -31 40 -46 l25 -28 -38 0
c-34 0 -37 2 -25 16 10 13 10 17 -1 24 -18 11 -31 3 -28 -18 4 -23 37 -41 75
-42 35 0 91 -42 119 -89 9 -15 30 -32 48 -37 l31 -9 3 -254 c2 -227 1 -255
-14 -266 -14 -9 -16 -22 -11 -57 5 -38 2 -50 -23 -89 -17 -24 -30 -52 -30 -63
0 -10 -11 -31 -25 -48 -14 -16 -25 -35 -25 -41 0 -7 -9 -18 -20 -25 -11 -7
-20 -19 -20 -28 0 -12 5 -10 20 7 19 24 19 24 20 2 0 -12 -7 -29 -16 -37 -14
-14 -14 -16 0 -16 19 0 36 30 36 67 1 24 29 73 43 73 13 0 14 -48 2 -74 -8
-16 -15 -41 -14 -55 l1 -26 8 26 c4 14 16 38 26 53 15 24 16 34 6 72 -14 53
-15 64 -3 64 5 0 13 -12 18 -27 5 -15 12 -22 16 -17 3 6 0 23 -8 38 -13 24
-13 31 -1 48 13 18 15 18 36 -18 l23 -36 -29 -57 c-31 -61 -38 -130 -15 -166
10 -17 11 -15 6 18 -3 21 -3 52 0 68 l7 29 23 -28 c12 -15 25 -36 27 -47 4
-18 6 -18 12 -3 5 11 1 27 -13 44 -23 29 -27 60 -11 84 9 13 13 12 30 -9 11
-13 20 -38 20 -56 0 -30 33 -76 45 -63 3 3 -1 11 -10 18 -8 7 -15 22 -15 34 1
21 1 21 20 -3 13 -15 20 -18 20 -9 0 8 -9 23 -20 33 -11 10 -20 22 -20 28 0 5
-11 22 -25 39 -14 16 -25 40 -25 53 0 13 -11 37 -25 53 -21 25 -25 40 -25 97
0 67 0 68 20 50 15 -14 19 -29 18 -67 -2 -39 2 -52 21 -71 l23 -22 -16 33
c-12 23 -14 41 -8 65 l8 32 17 -25 c17 -26 23 -112 12 -165 l-6 -30 15 25 15
25 1 -33 c0 -24 9 -43 30 -64 17 -16 30 -36 30 -44 0 -8 5 -14 10 -14 19 0 10
31 -15 54 -18 17 -29 43 -39 97 -8 41 -12 76 -9 79 9 10 43 -43 43 -67 0 -15
15 -39 40 -64 42 -42 57 -33 16 10 -23 25 -45 101 -29 101 16 0 30 -15 47 -47
20 -40 29 -42 20 -5 -9 38 -42 69 -89 84 -48 16 -62 48 -18 40 15 -2 34 -9 41
-15 9 -7 11 -6 6 6 -3 9 -21 21 -39 26 -28 7 -105 70 -105 85 0 8 101 -22 116
-35 9 -7 38 -46 65 -86 39 -58 49 -82 49 -114 0 -27 4 -38 11 -33 7 4 9 24 6
53 l-5 46 19 -24 c10 -13 19 -18 19 -11 0 7 -18 29 -39 49 -43 39 -70 91 -48
91 6 0 31 -18 55 -39 36 -33 43 -36 40 -19 -2 12 -11 26 -22 32 -10 6 -29 21
-42 34 -13 12 -32 22 -42 22 -11 0 -25 7 -32 15 -11 13 -7 15 31 15 35 0 49
-6 76 -32 18 -18 33 -26 33 -19 0 7 -15 28 -34 47 -33 33 -37 34 -109 34 -60
0 -80 4 -108 23 -59 39 -69 73 -69 236 l0 144 43 41 c28 27 62 47 99 59 37 11
66 28 82 48 37 44 32 53 -8 13 -33 -33 -76 -46 -76 -22 0 7 -5 5 -12 -4 -7 -9
-30 -21 -50 -28 -21 -6 -40 -16 -43 -21 -4 -5 -11 -9 -17 -9 -12 0 14 44 49
81 17 19 42 30 83 38 68 14 90 32 28 24 -46 -7 -46 -6 1 56 34 45 12 32 -84
-48 l-70 -59 -7 42 c-4 22 -11 64 -15 92 -5 28 -12 49 -18 47z m15 -285 c0 -7
-9 -24 -20 -38 -19 -24 -20 -25 -20 -3 0 12 7 29 16 37 19 19 24 20 24 4z m0
-422 c34 -45 32 -60 -7 -64 l-33 -3 0 50 c0 28 3 51 8 51 4 0 18 -16 32 -34z"/>
<path d="M1485 1980 c-7 -23 2 -43 16 -35 12 8 12 42 0 50 -5 3 -12 -4 -16
-15z"/>
<path d="M1380 1971 c0 -22 25 -39 38 -27 8 8 -10 38 -26 44 -7 2 -12 -6 -12
-17z"/>
<path d="M1580 1969 c-13 -24 -8 -34 15 -26 16 7 21 47 5 47 -5 0 -14 -9 -20
-21z"/>
<path d="M1150 1970 c0 -15 38 -50 54 -50 26 0 30 23 6 42 -24 19 -60 24 -60
8z"/>
<path d="M1310 1956 c0 -14 10 -32 23 -41 21 -15 22 -14 25 10 4 29 -13 55
-34 55 -8 0 -14 -10 -14 -24z"/>
<path d="M1648 1969 c-18 -10 -26 -69 -10 -69 16 0 42 36 42 58 0 24 -6 26
-32 11z"/>
<path d="M1780 1962 c-24 -19 -20 -42 6 -42 16 0 54 35 54 50 0 16 -36 11 -60
-8z"/>
<path d="M1136 1911 c-9 -15 32 -44 51 -36 16 6 16 8 -6 26 -25 21 -37 24 -45
10z"/>
<path d="M1380 1907 c0 -8 7 -21 16 -28 14 -11 15 -10 12 11 -3 26 -28 41 -28
17z"/>
<path d="M1484 1907 c-7 -20 -2 -47 11 -50 14 -3 19 43 6 56 -7 7 -12 6 -17
-6z"/>
<path d="M1587 1913 c-4 -3 -7 -15 -7 -26 0 -16 3 -17 15 -7 8 7 15 19 15 26
0 15 -12 19 -23 7z"/>
<path d="M1809 1901 c-22 -18 -22 -20 -6 -26 19 -8 60 21 51 36 -8 14 -20 11
-45 -10z"/>
<path d="M1085 1850 c-10 -16 4 -30 29 -30 25 0 51 22 39 33 -10 11 -61 8 -68
-3z"/>
<path d="M1842 1843 c2 -13 12 -18 33 -18 43 0 40 29 -3 33 -28 3 -33 0 -30
-15z"/>
<path d="M1190 1840 c0 -25 56 -71 103 -85 28 -8 65 -25 83 -37 58 -40 64 -61
64 -220 0 -124 -3 -147 -20 -175 -31 -52 -65 -67 -159 -74 -81 -5 -86 -7 -113
-39 -39 -47 -35 -58 7 -21 28 24 45 31 77 31 35 0 39 -2 28 -15 -7 -8 -21 -15
-32 -15 -10 0 -29 -11 -42 -25 -13 -14 -28 -25 -34 -25 -12 0 -32 -31 -32 -50
0 -6 11 2 25 17 22 25 24 26 25 8 1 -15 4 -11 15 13 8 17 21 32 30 32 8 0 15
-3 15 -6 0 -16 -27 -53 -61 -85 -22 -20 -39 -43 -39 -50 0 -8 9 -3 21 11 l20
25 -7 -37 c-3 -20 -1 -45 5 -55 9 -15 10 -12 11 21 0 27 11 57 38 99 53 86 92
122 143 133 32 7 45 15 47 29 2 11 12 29 22 40 28 30 39 97 40 233 0 106 -3
128 -21 165 -25 48 -41 62 -89 78 -19 6 -41 18 -47 27 -8 9 -13 11 -13 4 0
-24 -43 -11 -76 22 -19 19 -34 30 -34 26z"/>
<path d="M1232 1833 c2 -10 13 -19 26 -21 24 -4 29 7 10 26 -18 18 -40 15 -36
-5z"/>
<path d="M1728 1839 c-17 -9 -26 -39 -12 -39 16 0 44 23 44 35 0 17 -8 18 -32
4z"/>
<path d="M1485 1820 c-7 -23 2 -43 16 -35 12 8 12 42 0 50 -5 3 -12 -4 -16
-15z"/>
<path d="M1135 1810 c-8 -13 20 -24 40 -16 8 3 15 10 15 16 0 13 -47 13 -55 0z"/>
<path d="M1320 1811 c0 -12 29 -35 36 -28 11 10 -5 37 -21 37 -8 0 -15 -4 -15
-9z"/>
<path d="M1633 1805 c-3 -9 -3 -18 -1 -21 9 -9 38 8 38 22 0 19 -29 18 -37 -1z"/>
<path d="M1800 1805 c0 -12 7 -15 25 -13 14 2 26 8 26 13 0 6 -12 11 -26 13
-18 2 -25 -1 -25 -13z"/>
<path d="M1095 1760 c-16 -18 -16 -20 -1 -26 19 -7 46 12 46 32 0 20 -24 17
-45 -6z"/>
<path d="M1166 1764 c-22 -22 -20 -34 7 -34 25 0 47 17 47 37 0 18 -35 16 -54
-3z"/>
<path d="M1842 1764 c4 -20 34 -41 45 -31 10 11 -11 41 -31 45 -12 3 -17 -2
-14 -14z"/>
<path d="M1760 1757 c0 -20 22 -37 47 -37 28 0 29 11 5 33 -22 20 -52 22 -52
4z"/>
<path d="M1224 1739 c-3 -6 -2 -15 4 -21 11 -11 52 6 52 22 0 14 -47 13 -56
-1z"/>
<path d="M1707 1743 c-19 -18 19 -48 42 -34 10 6 9 12 -4 25 -18 17 -28 20
-38 9z"/>
<path d="M1291 1716 c-9 -11 -8 -15 5 -20 17 -6 44 9 44 25 0 14 -36 10 -49
-5z"/>
<path d="M1647 1723 c-11 -10 13 -33 34 -33 25 0 24 16 0 30 -23 12 -26 12
-34 3z"/>
<path d="M760 1515 c0 -96 3 -115 15 -115 8 0 15 7 15 17 0 15 1 15 18 0 60
-54 142 39 101 114 -16 31 -56 42 -90 25 l-29 -14 0 44 c0 32 -4 44 -15 44
-12 0 -15 -19 -15 -115z m110 5 c11 -11 20 -28 20 -37 0 -23 -29 -53 -51 -53
-19 0 -49 35 -49 57 0 15 36 53 50 53 6 0 19 -9 30 -20z"/>
<path d="M390 1538 c1 -86 8 -106 47 -126 37 -20 73 -14 104 17 27 28 29 34
29 110 0 76 -1 81 -21 81 -21 0 -21 -3 -16 -59 8 -73 -6 -117 -38 -125 -55
-14 -75 19 -75 120 0 50 -3 64 -15 64 -12 0 -15 -16 -15 -82z"/>
<path d="M1640 1510 l0 -110 58 0 c66 0 101 15 113 48 7 18 4 28 -15 47 -20
20 -22 26 -10 36 21 17 17 56 -8 73 -14 10 -44 16 -80 16 l-58 0 0 -110z m121
80 c45 -25 8 -70 -57 -70 -43 0 -44 1 -44 33 0 19 3 37 7 40 10 11 72 8 94 -3z
m19 -105 c25 -30 8 -50 -50 -57 -30 -3 -58 -4 -62 -2 -5 3 -8 21 -8 40 l0 34
54 0 c35 0 58 -5 66 -15z"/>
<path d="M682 1554 c-12 -8 -22 -10 -22 -5 0 6 -7 11 -15 11 -12 0 -15 -16
-15 -81 0 -71 2 -80 18 -77 13 3 16 12 14 41 -4 42 19 87 43 87 8 0 15 9 15
20 0 24 -8 25 -38 4z"/>
<path d="M1002 1561 c-13 -3 -23 -9 -23 -13 1 -5 1 -12 1 -17 0 -6 12 -6 28
-1 29 8 62 -3 62 -20 0 -6 -18 -10 -39 -10 -63 0 -93 -47 -53 -83 21 -19 45
-21 73 -7 13 7 19 7 19 0 0 -5 7 -10 15 -10 12 0 15 14 15 69 0 43 -5 72 -12
78 -19 15 -60 21 -86 14z m66 -103 c-2 -17 -11 -24 -32 -26 -32 -4 -51 15 -34
35 6 7 24 13 40 13 25 0 29 -4 26 -22z"/>
<path d="M1212 1554 c-12 -8 -22 -10 -22 -5 0 6 -7 11 -15 11 -12 0 -15 -16
-15 -80 0 -64 3 -80 15 -80 11 0 15 12 15 48 0 58 17 85 51 80 22 -3 24 -8 27
-65 3 -55 6 -63 22 -63 18 0 20 7 20 60 0 51 -4 65 -25 85 -28 29 -42 31 -73
9z"/>
<path d="M1870 1480 c0 -64 3 -80 15 -80 12 0 15 16 15 80 0 64 -3 80 -15 80
-12 0 -15 -16 -15 -80z"/>
<path d="M1992 1553 c-15 -6 -42 -56 -42 -78 0 -26 55 -75 85 -75 37 0 75 41
75 83 0 57 -61 93 -118 70z m80 -30 c24 -21 23 -58 -2 -83 -51 -51 -115 14
-80 81 13 24 57 25 82 2z"/>
<path d="M2170 1480 c0 -47 4 -80 10 -80 6 0 10 26 10 58 0 63 11 82 47 82 30
0 45 -31 42 -87 -2 -30 1 -48 9 -51 8 -2 12 14 12 56 0 65 13 86 52 80 21 -3
24 -10 28 -67 3 -39 10 -66 18 -69 19 -6 16 108 -4 136 -18 27 -78 31 -92 6
-8 -14 -10 -14 -21 0 -16 19 -62 21 -79 4 -9 -9 -12 -9 -12 0 0 7 -4 12 -10
12 -6 0 -10 -33 -10 -80z"/>
<path d="M2481 1534 c-51 -65 10 -155 87 -128 14 5 27 15 30 23 4 11 0 12 -14
6 -44 -18 -62 -17 -86 7 l-23 23 68 3 c64 3 67 4 67 27 0 62 -90 89 -129 39z
m99 -15 c15 -28 11 -31 -49 -27 -51 3 -51 3 -36 26 21 29 70 30 85 1z"/>
<path d="M1371 1178 c-21 -21 -48 -38 -59 -38 -11 0 -26 -7 -33 -16 -15 -18
-18 -18 49 1 12 4 22 2 22 -4 0 -14 -41 -41 -63 -41 -30 0 -77 -54 -76 -87 l1
-28 11 26 c15 32 37 59 48 59 21 0 8 -61 -21 -93 -44 -51 -37 -64 10 -18 26
26 40 48 40 65 0 25 36 73 46 63 13 -13 -26 -149 -50 -178 -14 -17 -23 -36
-19 -42 4 -7 8 -6 11 3 2 8 17 29 33 45 16 18 29 44 31 65 l4 35 12 -25 c12
-25 12 -25 7 5 -10 51 -5 117 12 154 l16 36 10 -34 c9 -27 7 -40 -6 -65 l-17
-31 26 29 c22 25 25 35 20 69 -6 33 -3 44 15 63 l21 23 -31 -1 c-23 -1 -43
-12 -70 -40z"/>
</g>
</svg>
